<svg width="20" height="20" viewBox="0 0 20 20" fill="none" xmlns="http://www.w3.org/2000/svg">
<path d="M10 0.25C8.07164 0.25 6.18657 0.821828 4.58319 1.89317C2.97982 2.96452 1.73013 4.48726 0.992179 6.26884C0.254225 8.05042 0.061142 10.0108 0.437348 11.9021C0.813554 13.7934 1.74215 15.5307 3.10571 16.8943C4.46928 18.2579 6.20656 19.1865 8.09787 19.5627C9.98919 19.9389 11.9496 19.7458 13.7312 19.0078C15.5127 18.2699 17.0355 17.0202 18.1068 15.4168C19.1782 13.8134 19.75 11.9284 19.75 10C19.7471 7.41504 18.7189 4.93679 16.8911 3.10894C15.0632 1.28109 12.585 0.252926 10 0.25V0.25ZM14.9078 6.07413L12.2739 11.8999C12.1967 12.0708 12.0582 12.2065 11.8859 12.2803L6.31748 14.6668C6.17971 14.7259 6.0274 14.7423 5.88021 14.714C5.73301 14.6856 5.59769 14.6138 5.49169 14.5078C5.38569 14.4019 5.31389 14.2665 5.28554 14.1193C5.25719 13.9722 5.2736 13.8198 5.33265 13.6821L7.71906 8.11356C7.79274 7.94175 7.92791 7.80365 8.09809 7.72629L13.914 5.08243C14.0528 5.0193 14.2077 5.00001 14.3578 5.02715C14.5079 5.05428 14.6462 5.12654 14.7541 5.23429C14.8621 5.34204 14.9347 5.48016 14.9621 5.63021C14.9896 5.78027 14.9706 5.93512 14.9078 6.07413Z" fill="url(#paint0_linear_3131_8)"/>
<defs>
<linearGradient id="paint0_linear_3131_8" x1="-0.839258" y1="-0.57875" x2="24.5695" y2="5.03934" gradientUnits="userSpaceOnUse">
<stop stop-color="#176FEB"/>
<stop offset="1" stop-color="#FF80FF"/>
</linearGradient>
</defs>
</svg>
