<svg width="19" height="19" viewBox="0 0 19 19" fill="none" xmlns="http://www.w3.org/2000/svg">
<path d="M12.1127 11.052L17.3473 9.14848C17.6355 9.0437 17.8846 8.85313 18.0612 8.60242C18.2377 8.35172 18.3332 8.05294 18.3347 7.74632C18.3363 7.43969 18.2438 7.13997 18.0698 6.88751C17.8957 6.63505 17.6485 6.44199 17.3614 6.33433L2.80793 0.876779C2.53825 0.775637 2.24516 0.754273 1.96367 0.815243C1.68218 0.876212 1.4242 1.01693 1.22055 1.2206C1.01689 1.42426 0.876184 1.68225 0.815228 1.96374C0.754272 2.24524 0.775649 2.53832 0.876804 2.80799V2.80795L6.33435 17.3614C6.43988 17.6484 6.63132 17.8958 6.88257 18.07C7.13383 18.2442 7.43268 18.3366 7.73841 18.3348H7.74628C8.05336 18.3351 8.35302 18.2404 8.60409 18.0636C8.85517 17.8868 9.04535 17.6366 9.1485 17.3474L11.052 12.1128L16.9693 18.03C17.11 18.1707 17.3007 18.2497 17.4997 18.2497C17.6986 18.2497 17.8894 18.1707 18.03 18.03C18.1707 17.8893 18.2497 17.6986 18.2497 17.4996C18.2497 17.3007 18.1707 17.1099 18.03 16.9693L12.1127 11.052Z" fill="url(#paint0_linear_3131_1095)"/>
<defs>
<linearGradient id="paint0_linear_3131_1095" x1="-0.199277" y1="0.0352239" x2="22.6732" y2="5.09249" gradientUnits="userSpaceOnUse">
<stop stop-color="#176FEB"/>
<stop offset="1" stop-color="#FF80FF"/>
</linearGradient>
</defs>
</svg>
