<svg width="23" height="23" viewBox="0 0 23 23" fill="none" xmlns="http://www.w3.org/2000/svg">
<path d="M18.5809 13.5C18.5828 13.8073 18.4895 14.1076 18.3138 14.3597C18.138 14.6117 17.8885 14.8031 17.5995 14.9075L12.7095 16.7091L10.9079 21.5991C10.8018 21.887 10.61 22.1354 10.3583 22.3109C10.1067 22.4864 9.80721 22.5805 9.5004 22.5805C9.19358 22.5805 8.89415 22.4864 8.64246 22.3109C8.39078 22.1354 8.19896 21.887 8.09287 21.5991L6.29129 16.7091L1.40128 14.9075C1.11339 14.8014 0.864957 14.6096 0.68948 14.3579C0.514003 14.1063 0.419922 13.8068 0.419922 13.5C0.419922 13.1932 0.514003 12.8937 0.68948 12.6421C0.864957 12.3904 1.11339 12.1986 1.40128 12.0925L6.29129 10.2909L8.09287 5.40088C8.19896 5.11299 8.39078 4.86456 8.64246 4.68908C8.89415 4.51361 9.19358 4.41952 9.5004 4.41952C9.80721 4.41952 10.1067 4.51361 10.3583 4.68908C10.61 4.86456 10.8018 5.11299 10.9079 5.40088L12.7095 10.2909L17.5995 12.0925C17.8885 12.1969 18.138 12.3883 18.3138 12.6403C18.4895 12.8924 18.5828 13.1927 18.5809 13.5ZM13.2504 4.5H14.7504V6C14.7504 6.19891 14.8294 6.38968 14.9701 6.53033C15.1107 6.67098 15.3015 6.75 15.5004 6.75C15.6993 6.75 15.8901 6.67098 16.0307 6.53033C16.1714 6.38968 16.2504 6.19891 16.2504 6V4.5H17.7504C17.9493 4.5 18.1401 4.42098 18.2807 4.28033C18.4214 4.13968 18.5004 3.94891 18.5004 3.75C18.5004 3.55109 18.4214 3.36032 18.2807 3.21967C18.1401 3.07902 17.9493 3 17.7504 3H16.2504V1.5C16.2504 1.30109 16.1714 1.11032 16.0307 0.96967C15.8901 0.829018 15.6993 0.75 15.5004 0.75C15.3015 0.75 15.1107 0.829018 14.9701 0.96967C14.8294 1.11032 14.7504 1.30109 14.7504 1.5V3H13.2504C13.0515 3 12.8607 3.07902 12.7201 3.21967C12.5794 3.36032 12.5004 3.55109 12.5004 3.75C12.5004 3.94891 12.5794 4.13968 12.7201 4.28033C12.8607 4.42098 13.0515 4.5 13.2504 4.5ZM21.5004 7.5H20.7504V6.75C20.7504 6.55109 20.6714 6.36032 20.5307 6.21967C20.3901 6.07902 20.1993 6 20.0004 6C19.8015 6 19.6107 6.07902 19.4701 6.21967C19.3294 6.36032 19.2504 6.55109 19.2504 6.75V7.5H18.5004C18.3015 7.5 18.1107 7.57902 17.9701 7.71967C17.8294 7.86032 17.7504 8.05109 17.7504 8.25C17.7504 8.44891 17.8294 8.63968 17.9701 8.78033C18.1107 8.92098 18.3015 9 18.5004 9H19.2504V9.75C19.2504 9.94891 19.3294 10.1397 19.4701 10.2803C19.6107 10.421 19.8015 10.5 20.0004 10.5C20.1993 10.5 20.3901 10.421 20.5307 10.2803C20.6714 10.1397 20.7504 9.94891 20.7504 9.75V9H21.5004C21.6993 9 21.8901 8.92098 22.0307 8.78033C22.1714 8.63968 22.2504 8.44891 22.2504 8.25C22.2504 8.05109 22.1714 7.86032 22.0307 7.71967C21.8901 7.57902 21.6993 7.5 21.5004 7.5Z" fill="url(#paint0_linear_3131_1074)"/>
<defs>
<linearGradient id="paint0_linear_3131_1074" x1="-0.799515" y1="-0.177795" x2="27.6459" y2="6.11172" gradientUnits="userSpaceOnUse">
<stop stop-color="#176FEB"/>
<stop offset="1" stop-color="#FF80FF"/>
</linearGradient>
</defs>
</svg>
