<svg width="20" height="20" viewBox="0 0 20 20" fill="none" xmlns="http://www.w3.org/2000/svg">
<path d="M10 0.25C8.07164 0.25 6.18657 0.821828 4.58319 1.89317C2.97982 2.96451 1.73013 4.48726 0.992179 6.26884C0.254225 8.05042 0.061142 10.0108 0.437348 11.9021C0.813554 13.7934 1.74215 15.5307 3.10571 16.8943C4.46928 18.2579 6.20656 19.1865 8.09787 19.5627C9.98919 19.9389 11.9496 19.7458 13.7312 19.0078C15.5127 18.2699 17.0355 17.0202 18.1068 15.4168C19.1782 13.8134 19.75 11.9284 19.75 10C19.747 7.41506 18.7188 4.93684 16.891 3.10901C15.0632 1.28118 12.5849 0.252988 10 0.25ZM13.5303 12.4697C13.6 12.5393 13.6554 12.622 13.6932 12.713C13.731 12.804 13.7504 12.9016 13.7505 13.0002C13.7505 13.0987 13.7312 13.1963 13.6935 13.2874C13.6558 13.3784 13.6005 13.4612 13.5308 13.5308C13.4612 13.6005 13.3784 13.6558 13.2874 13.6935C13.1963 13.7312 13.0987 13.7505 13.0002 13.7505C12.9016 13.7504 12.8041 13.731 12.713 13.6932C12.622 13.6554 12.5393 13.6 12.4697 13.5303L10 11.0605L7.53028 13.5303C7.38959 13.6707 7.19892 13.7495 7.00017 13.7494C6.80142 13.7492 6.61083 13.6702 6.47029 13.5297C6.32976 13.3892 6.25075 13.1986 6.25065 12.9998C6.25054 12.8011 6.32934 12.6104 6.46973 12.4697L8.93946 10L6.46973 7.53027C6.32934 7.38958 6.25054 7.19892 6.25065 7.00016C6.25075 6.80141 6.32976 6.61083 6.47029 6.47029C6.61083 6.32975 6.80142 6.25075 7.00017 6.25064C7.19892 6.25054 7.38959 6.32934 7.53028 6.46973L10 8.93945L12.4697 6.46973C12.6104 6.32934 12.8011 6.25054 12.9998 6.25064C13.1986 6.25075 13.3892 6.32975 13.5297 6.47029C13.6703 6.61083 13.7493 6.80141 13.7494 7.00016C13.7495 7.19892 13.6707 7.38958 13.5303 7.53027L11.0606 10L13.5303 12.4697Z" fill="#E07F4F"/>
</svg>
