<svg width="20" height="20" viewBox="0 0 20 20" fill="none" xmlns="http://www.w3.org/2000/svg">
<path d="M10 0.25C8.07164 0.25 6.18657 0.821828 4.58319 1.89317C2.97982 2.96451 1.73013 4.48726 0.992179 6.26884C0.254225 8.05042 0.061142 10.0108 0.437348 11.9021C0.813554 13.7934 1.74215 15.5307 3.10571 16.8943C4.46928 18.2579 6.20656 19.1865 8.09787 19.5627C9.98919 19.9389 11.9496 19.7458 13.7312 19.0078C15.5127 18.2699 17.0355 17.0202 18.1068 15.4168C19.1782 13.8134 19.75 11.9284 19.75 10C19.747 7.41506 18.7188 4.93684 16.891 3.10901C15.0632 1.28118 12.5849 0.252988 10 0.25ZM14.6436 8.29272L9.14307 13.5427C9.00322 13.6758 8.81756 13.75 8.62452 13.75C8.43147 13.75 8.24582 13.6758 8.10596 13.5427L5.35645 10.9177C5.2128 10.7801 5.12965 10.5911 5.12524 10.3923C5.12084 10.1934 5.19555 10.0009 5.33297 9.8571C5.47038 9.71328 5.65927 9.62989 5.85813 9.62523C6.05699 9.62058 6.24956 9.69504 6.39356 9.83228L8.62452 11.9629L13.6064 7.20728C13.7504 7.07004 13.943 6.99558 14.1419 7.00023C14.3407 7.00489 14.5296 7.08828 14.667 7.2321C14.8045 7.37592 14.8792 7.56841 14.8748 7.76727C14.8704 7.96614 14.7872 8.15513 14.6436 8.29272Z" fill="#29CC74"/>
</svg>
