<svg width="1920" height="343" viewBox="0 0 1920 343" fill="none" xmlns="http://www.w3.org/2000/svg">
<path d="M-29 14C7.36666 -3.33333 43.7333 -3.33333 80.1 14C116.467 31.3333 152.833 31.3333 189.2 14C225.567 -3.33333 261.933 -3.33333 298.3 14C334.667 31.3333 371.033 31.3333 407.4 14C443.767 -3.33333 480.133 -3.33333 516.5 14C552.867 31.3333 589.233 31.3333 625.6 14C661.967 -3.33333 698.333 -3.33333 734.7 14C771.067 31.3333 807.433 31.3333 843.8 14C880.167 -3.33333 916.533 -3.33333 952.9 14C989.267 31.3333 1025.63 31.3333 1062 14C1098.37 -3.33333 1134.73 -3.33333 1171.1 14C1207.47 31.3333 1243.83 31.3333 1280.2 14C1316.57 -3.33333 1352.93 -3.33333 1389.3 14C1425.67 31.3333 1462.03 31.3333 1498.4 14C1534.77 -3.33333 1571.13 -3.33333 1607.5 14C1643.87 31.3333 1680.23 31.3333 1716.6 14C1752.97 -3.33333 1789.33 -3.33333 1825.7 14C1862.07 31.3333 1898.43 31.3333 1934.8 14C1971.17 -3.33333 2007.53 -3.33333 2043.9 14C2080.27 31.3333 2116.63 31.3333 2153 14" stroke="#F5F9FF" stroke-width="2"/>
<path d="M-29 29C7.36666 11.6667 43.7333 11.6667 80.1 29C116.467 46.3333 152.833 46.3333 189.2 29C225.567 11.6667 261.933 11.6667 298.3 29C334.667 46.3333 371.033 46.3333 407.4 29C443.767 11.6667 480.133 11.6667 516.5 29C552.867 46.3333 589.233 46.3333 625.6 29C661.967 11.6667 698.333 11.6667 734.7 29C771.067 46.3333 807.433 46.3333 843.8 29C880.167 11.6667 916.533 11.6667 952.9 29C989.267 46.3333 1025.63 46.3333 1062 29C1098.37 11.6667 1134.73 11.6667 1171.1 29C1207.47 46.3333 1243.83 46.3333 1280.2 29C1316.57 11.6667 1352.93 11.6667 1389.3 29C1425.67 46.3333 1462.03 46.3333 1498.4 29C1534.77 11.6667 1571.13 11.6667 1607.5 29C1643.87 46.3333 1680.23 46.3333 1716.6 29C1752.97 11.6667 1789.33 11.6667 1825.7 29C1862.07 46.3333 1898.43 46.3333 1934.8 29C1971.17 11.6667 2007.53 11.6667 2043.9 29C2080.27 46.3333 2116.63 46.3333 2153 29" stroke="#F5F9FF" stroke-width="2"/>
<path d="M-29 44C7.36666 26.6667 43.7333 26.6667 80.1 44C116.467 61.3333 152.833 61.3333 189.2 44C225.567 26.6667 261.933 26.6667 298.3 44C334.667 61.3333 371.033 61.3333 407.4 44C443.767 26.6667 480.133 26.6667 516.5 44C552.867 61.3333 589.233 61.3333 625.6 44C661.967 26.6667 698.333 26.6667 734.7 44C771.067 61.3333 807.433 61.3333 843.8 44C880.167 26.6667 916.533 26.6667 952.9 44C989.267 61.3333 1025.63 61.3333 1062 44C1098.37 26.6667 1134.73 26.6667 1171.1 44C1207.47 61.3333 1243.83 61.3333 1280.2 44C1316.57 26.6667 1352.93 26.6667 1389.3 44C1425.67 61.3333 1462.03 61.3333 1498.4 44C1534.77 26.6667 1571.13 26.6667 1607.5 44C1643.87 61.3333 1680.23 61.3333 1716.6 44C1752.97 26.6667 1789.33 26.6667 1825.7 44C1862.07 61.3333 1898.43 61.3333 1934.8 44C1971.17 26.6667 2007.53 26.6667 2043.9 44C2080.27 61.3333 2116.63 61.3333 2153 44" stroke="#F5F9FF" stroke-width="2"/>
<path d="M-29 59C7.36666 41.6667 43.7333 41.6667 80.1 59C116.467 76.3333 152.833 76.3333 189.2 59C225.567 41.6667 261.933 41.6667 298.3 59C334.667 76.3333 371.033 76.3333 407.4 59C443.767 41.6667 480.133 41.6667 516.5 59C552.867 76.3333 589.233 76.3333 625.6 59C661.967 41.6667 698.333 41.6667 734.7 59C771.067 76.3333 807.433 76.3333 843.8 59C880.167 41.6667 916.533 41.6667 952.9 59C989.267 76.3333 1025.63 76.3333 1062 59C1098.37 41.6667 1134.73 41.6667 1171.1 59C1207.47 76.3333 1243.83 76.3333 1280.2 59C1316.57 41.6667 1352.93 41.6667 1389.3 59C1425.67 76.3333 1462.03 76.3333 1498.4 59C1534.77 41.6667 1571.13 41.6667 1607.5 59C1643.87 76.3333 1680.23 76.3333 1716.6 59C1752.97 41.6667 1789.33 41.6667 1825.7 59C1862.07 76.3333 1898.43 76.3333 1934.8 59C1971.17 41.6667 2007.53 41.6667 2043.9 59C2080.27 76.3333 2116.63 76.3333 2153 59" stroke="#F5F9FF" stroke-width="2"/>
<path d="M-29 74C7.36666 56.6667 43.7333 56.6667 80.1 74C116.467 91.3333 152.833 91.3333 189.2 74C225.567 56.6667 261.933 56.6667 298.3 74C334.667 91.3333 371.033 91.3333 407.4 74C443.767 56.6667 480.133 56.6667 516.5 74C552.867 91.3333 589.233 91.3333 625.6 74C661.967 56.6667 698.333 56.6667 734.7 74C771.067 91.3333 807.433 91.3333 843.8 74C880.167 56.6667 916.533 56.6667 952.9 74C989.267 91.3333 1025.63 91.3333 1062 74C1098.37 56.6667 1134.73 56.6667 1171.1 74C1207.47 91.3333 1243.83 91.3333 1280.2 74C1316.57 56.6667 1352.93 56.6667 1389.3 74C1425.67 91.3333 1462.03 91.3333 1498.4 74C1534.77 56.6667 1571.13 56.6667 1607.5 74C1643.87 91.3333 1680.23 91.3333 1716.6 74C1752.97 56.6667 1789.33 56.6667 1825.7 74C1862.07 91.3333 1898.43 91.3333 1934.8 74C1971.17 56.6667 2007.53 56.6667 2043.9 74C2080.27 91.3333 2116.63 91.3333 2153 74" stroke="#F5F9FF" stroke-width="2"/>
<path d="M-29 89C7.36666 71.6667 43.7333 71.6667 80.1 89C116.467 106.333 152.833 106.333 189.2 89C225.567 71.6667 261.933 71.6667 298.3 89C334.667 106.333 371.033 106.333 407.4 89C443.767 71.6667 480.133 71.6667 516.5 89C552.867 106.333 589.233 106.333 625.6 89C661.967 71.6667 698.333 71.6667 734.7 89C771.067 106.333 807.433 106.333 843.8 89C880.167 71.6667 916.533 71.6667 952.9 89C989.267 106.333 1025.63 106.333 1062 89C1098.37 71.6667 1134.73 71.6667 1171.1 89C1207.47 106.333 1243.83 106.333 1280.2 89C1316.57 71.6667 1352.93 71.6667 1389.3 89C1425.67 106.333 1462.03 106.333 1498.4 89C1534.77 71.6667 1571.13 71.6667 1607.5 89C1643.87 106.333 1680.23 106.333 1716.6 89C1752.97 71.6667 1789.33 71.6667 1825.7 89C1862.07 106.333 1898.43 106.333 1934.8 89C1971.17 71.6667 2007.53 71.6667 2043.9 89C2080.27 106.333 2116.63 106.333 2153 89" stroke="#F5F9FF" stroke-width="2"/>
<path d="M-29 104C7.36666 86.6667 43.7333 86.6667 80.1 104C116.467 121.333 152.833 121.333 189.2 104C225.567 86.6667 261.933 86.6667 298.3 104C334.667 121.333 371.033 121.333 407.4 104C443.767 86.6667 480.133 86.6667 516.5 104C552.867 121.333 589.233 121.333 625.6 104C661.967 86.6667 698.333 86.6667 734.7 104C771.067 121.333 807.433 121.333 843.8 104C880.167 86.6667 916.533 86.6667 952.9 104C989.267 121.333 1025.63 121.333 1062 104C1098.37 86.6667 1134.73 86.6667 1171.1 104C1207.47 121.333 1243.83 121.333 1280.2 104C1316.57 86.6667 1352.93 86.6667 1389.3 104C1425.67 121.333 1462.03 121.333 1498.4 104C1534.77 86.6667 1571.13 86.6667 1607.5 104C1643.87 121.333 1680.23 121.333 1716.6 104C1752.97 86.6667 1789.33 86.6667 1825.7 104C1862.07 121.333 1898.43 121.333 1934.8 104C1971.17 86.6667 2007.53 86.6667 2043.9 104C2080.27 121.333 2116.63 121.333 2153 104" stroke="#F5F9FF" stroke-width="2"/>
<path d="M-29 119C7.36666 101.667 43.7333 101.667 80.1 119C116.467 136.333 152.833 136.333 189.2 119C225.567 101.667 261.933 101.667 298.3 119C334.667 136.333 371.033 136.333 407.4 119C443.767 101.667 480.133 101.667 516.5 119C552.867 136.333 589.233 136.333 625.6 119C661.967 101.667 698.333 101.667 734.7 119C771.067 136.333 807.433 136.333 843.8 119C880.167 101.667 916.533 101.667 952.9 119C989.267 136.333 1025.63 136.333 1062 119C1098.37 101.667 1134.73 101.667 1171.1 119C1207.47 136.333 1243.83 136.333 1280.2 119C1316.57 101.667 1352.93 101.667 1389.3 119C1425.67 136.333 1462.03 136.333 1498.4 119C1534.77 101.667 1571.13 101.667 1607.5 119C1643.87 136.333 1680.23 136.333 1716.6 119C1752.97 101.667 1789.33 101.667 1825.7 119C1862.07 136.333 1898.43 136.333 1934.8 119C1971.17 101.667 2007.53 101.667 2043.9 119C2080.27 136.333 2116.63 136.333 2153 119" stroke="#F5F9FF" stroke-width="2"/>
<path d="M-29 134C7.36666 116.667 43.7333 116.667 80.1 134C116.467 151.333 152.833 151.333 189.2 134C225.567 116.667 261.933 116.667 298.3 134C334.667 151.333 371.033 151.333 407.4 134C443.767 116.667 480.133 116.667 516.5 134C552.867 151.333 589.233 151.333 625.6 134C661.967 116.667 698.333 116.667 734.7 134C771.067 151.333 807.433 151.333 843.8 134C880.167 116.667 916.533 116.667 952.9 134C989.267 151.333 1025.63 151.333 1062 134C1098.37 116.667 1134.73 116.667 1171.1 134C1207.47 151.333 1243.83 151.333 1280.2 134C1316.57 116.667 1352.93 116.667 1389.3 134C1425.67 151.333 1462.03 151.333 1498.4 134C1534.77 116.667 1571.13 116.667 1607.5 134C1643.87 151.333 1680.23 151.333 1716.6 134C1752.97 116.667 1789.33 116.667 1825.7 134C1862.07 151.333 1898.43 151.333 1934.8 134C1971.17 116.667 2007.53 116.667 2043.9 134C2080.27 151.333 2116.63 151.333 2153 134" stroke="#F5F9FF" stroke-width="2"/>
<path d="M-29 149C7.36666 131.667 43.7333 131.667 80.1 149C116.467 166.333 152.833 166.333 189.2 149C225.567 131.667 261.933 131.667 298.3 149C334.667 166.333 371.033 166.333 407.4 149C443.767 131.667 480.133 131.667 516.5 149C552.867 166.333 589.233 166.333 625.6 149C661.967 131.667 698.333 131.667 734.7 149C771.067 166.333 807.433 166.333 843.8 149C880.167 131.667 916.533 131.667 952.9 149C989.267 166.333 1025.63 166.333 1062 149C1098.37 131.667 1134.73 131.667 1171.1 149C1207.47 166.333 1243.83 166.333 1280.2 149C1316.57 131.667 1352.93 131.667 1389.3 149C1425.67 166.333 1462.03 166.333 1498.4 149C1534.77 131.667 1571.13 131.667 1607.5 149C1643.87 166.333 1680.23 166.333 1716.6 149C1752.97 131.667 1789.33 131.667 1825.7 149C1862.07 166.333 1898.43 166.333 1934.8 149C1971.17 131.667 2007.53 131.667 2043.9 149C2080.27 166.333 2116.63 166.333 2153 149" stroke="#F5F9FF" stroke-width="2"/>
<path d="M-29 164C7.36666 146.667 43.7333 146.667 80.1 164C116.467 181.333 152.833 181.333 189.2 164C225.567 146.667 261.933 146.667 298.3 164C334.667 181.333 371.033 181.333 407.4 164C443.767 146.667 480.133 146.667 516.5 164C552.867 181.333 589.233 181.333 625.6 164C661.967 146.667 698.333 146.667 734.7 164C771.067 181.333 807.433 181.333 843.8 164C880.167 146.667 916.533 146.667 952.9 164C989.267 181.333 1025.63 181.333 1062 164C1098.37 146.667 1134.73 146.667 1171.1 164C1207.47 181.333 1243.83 181.333 1280.2 164C1316.57 146.667 1352.93 146.667 1389.3 164C1425.67 181.333 1462.03 181.333 1498.4 164C1534.77 146.667 1571.13 146.667 1607.5 164C1643.87 181.333 1680.23 181.333 1716.6 164C1752.97 146.667 1789.33 146.667 1825.7 164C1862.07 181.333 1898.43 181.333 1934.8 164C1971.17 146.667 2007.53 146.667 2043.9 164C2080.27 181.333 2116.63 181.333 2153 164" stroke="#F5F9FF" stroke-width="2"/>
<path d="M-29 179C7.36666 161.667 43.7333 161.667 80.1 179C116.467 196.333 152.833 196.333 189.2 179C225.567 161.667 261.933 161.667 298.3 179C334.667 196.333 371.033 196.333 407.4 179C443.767 161.667 480.133 161.667 516.5 179C552.867 196.333 589.233 196.333 625.6 179C661.967 161.667 698.333 161.667 734.7 179C771.067 196.333 807.433 196.333 843.8 179C880.167 161.667 916.533 161.667 952.9 179C989.267 196.333 1025.63 196.333 1062 179C1098.37 161.667 1134.73 161.667 1171.1 179C1207.47 196.333 1243.83 196.333 1280.2 179C1316.57 161.667 1352.93 161.667 1389.3 179C1425.67 196.333 1462.03 196.333 1498.4 179C1534.77 161.667 1571.13 161.667 1607.5 179C1643.87 196.333 1680.23 196.333 1716.6 179C1752.97 161.667 1789.33 161.667 1825.7 179C1862.07 196.333 1898.43 196.333 1934.8 179C1971.17 161.667 2007.53 161.667 2043.9 179C2080.27 196.333 2116.63 196.333 2153 179" stroke="#F5F9FF" stroke-width="2"/>
<path d="M-29 194C7.36666 176.667 43.7333 176.667 80.1 194C116.467 211.333 152.833 211.333 189.2 194C225.567 176.667 261.933 176.667 298.3 194C334.667 211.333 371.033 211.333 407.4 194C443.767 176.667 480.133 176.667 516.5 194C552.867 211.333 589.233 211.333 625.6 194C661.967 176.667 698.333 176.667 734.7 194C771.067 211.333 807.433 211.333 843.8 194C880.167 176.667 916.533 176.667 952.9 194C989.267 211.333 1025.63 211.333 1062 194C1098.37 176.667 1134.73 176.667 1171.1 194C1207.47 211.333 1243.83 211.333 1280.2 194C1316.57 176.667 1352.93 176.667 1389.3 194C1425.67 211.333 1462.03 211.333 1498.4 194C1534.77 176.667 1571.13 176.667 1607.5 194C1643.87 211.333 1680.23 211.333 1716.6 194C1752.97 176.667 1789.33 176.667 1825.7 194C1862.07 211.333 1898.43 211.333 1934.8 194C1971.17 176.667 2007.53 176.667 2043.9 194C2080.27 211.333 2116.63 211.333 2153 194" stroke="#F5F9FF" stroke-width="2"/>
<path d="M-29 209C7.36666 191.667 43.7333 191.667 80.1 209C116.467 226.333 152.833 226.333 189.2 209C225.567 191.667 261.933 191.667 298.3 209C334.667 226.333 371.033 226.333 407.4 209C443.767 191.667 480.133 191.667 516.5 209C552.867 226.333 589.233 226.333 625.6 209C661.967 191.667 698.333 191.667 734.7 209C771.067 226.333 807.433 226.333 843.8 209C880.167 191.667 916.533 191.667 952.9 209C989.267 226.333 1025.63 226.333 1062 209C1098.37 191.667 1134.73 191.667 1171.1 209C1207.47 226.333 1243.83 226.333 1280.2 209C1316.57 191.667 1352.93 191.667 1389.3 209C1425.67 226.333 1462.03 226.333 1498.4 209C1534.77 191.667 1571.13 191.667 1607.5 209C1643.87 226.333 1680.23 226.333 1716.6 209C1752.97 191.667 1789.33 191.667 1825.7 209C1862.07 226.333 1898.43 226.333 1934.8 209C1971.17 191.667 2007.53 191.667 2043.9 209C2080.27 226.333 2116.63 226.333 2153 209" stroke="#F5F9FF" stroke-width="2"/>
<path d="M-29 224C7.36666 206.667 43.7333 206.667 80.1 224C116.467 241.333 152.833 241.333 189.2 224C225.567 206.667 261.933 206.667 298.3 224C334.667 241.333 371.033 241.333 407.4 224C443.767 206.667 480.133 206.667 516.5 224C552.867 241.333 589.233 241.333 625.6 224C661.967 206.667 698.333 206.667 734.7 224C771.067 241.333 807.433 241.333 843.8 224C880.167 206.667 916.533 206.667 952.9 224C989.267 241.333 1025.63 241.333 1062 224C1098.37 206.667 1134.73 206.667 1171.1 224C1207.47 241.333 1243.83 241.333 1280.2 224C1316.57 206.667 1352.93 206.667 1389.3 224C1425.67 241.333 1462.03 241.333 1498.4 224C1534.77 206.667 1571.13 206.667 1607.5 224C1643.87 241.333 1680.23 241.333 1716.6 224C1752.97 206.667 1789.33 206.667 1825.7 224C1862.07 241.333 1898.43 241.333 1934.8 224C1971.17 206.667 2007.53 206.667 2043.9 224C2080.27 241.333 2116.63 241.333 2153 224" stroke="#F5F9FF" stroke-width="2"/>
<path d="M-29 239C7.36666 221.667 43.7333 221.667 80.1 239C116.467 256.333 152.833 256.333 189.2 239C225.567 221.667 261.933 221.667 298.3 239C334.667 256.333 371.033 256.333 407.4 239C443.767 221.667 480.133 221.667 516.5 239C552.867 256.333 589.233 256.333 625.6 239C661.967 221.667 698.333 221.667 734.7 239C771.067 256.333 807.433 256.333 843.8 239C880.167 221.667 916.533 221.667 952.9 239C989.267 256.333 1025.63 256.333 1062 239C1098.37 221.667 1134.73 221.667 1171.1 239C1207.47 256.333 1243.83 256.333 1280.2 239C1316.57 221.667 1352.93 221.667 1389.3 239C1425.67 256.333 1462.03 256.333 1498.4 239C1534.77 221.667 1571.13 221.667 1607.5 239C1643.87 256.333 1680.23 256.333 1716.6 239C1752.97 221.667 1789.33 221.667 1825.7 239C1862.07 256.333 1898.43 256.333 1934.8 239C1971.17 221.667 2007.53 221.667 2043.9 239C2080.27 256.333 2116.63 256.333 2153 239" stroke="#F5F9FF" stroke-width="2"/>
<path d="M-29 254C7.36666 236.667 43.7333 236.667 80.1 254C116.467 271.333 152.833 271.333 189.2 254C225.567 236.667 261.933 236.667 298.3 254C334.667 271.333 371.033 271.333 407.4 254C443.767 236.667 480.133 236.667 516.5 254C552.867 271.333 589.233 271.333 625.6 254C661.967 236.667 698.333 236.667 734.7 254C771.067 271.333 807.433 271.333 843.8 254C880.167 236.667 916.533 236.667 952.9 254C989.267 271.333 1025.63 271.333 1062 254C1098.37 236.667 1134.73 236.667 1171.1 254C1207.47 271.333 1243.83 271.333 1280.2 254C1316.57 236.667 1352.93 236.667 1389.3 254C1425.67 271.333 1462.03 271.333 1498.4 254C1534.77 236.667 1571.13 236.667 1607.5 254C1643.87 271.333 1680.23 271.333 1716.6 254C1752.97 236.667 1789.33 236.667 1825.7 254C1862.07 271.333 1898.43 271.333 1934.8 254C1971.17 236.667 2007.53 236.667 2043.9 254C2080.27 271.333 2116.63 271.333 2153 254" stroke="#F5F9FF" stroke-width="2"/>
<path d="M-29 269C7.36666 251.667 43.7333 251.667 80.1 269C116.467 286.333 152.833 286.333 189.2 269C225.567 251.667 261.933 251.667 298.3 269C334.667 286.333 371.033 286.333 407.4 269C443.767 251.667 480.133 251.667 516.5 269C552.867 286.333 589.233 286.333 625.6 269C661.967 251.667 698.333 251.667 734.7 269C771.067 286.333 807.433 286.333 843.8 269C880.167 251.667 916.533 251.667 952.9 269C989.267 286.333 1025.63 286.333 1062 269C1098.37 251.667 1134.73 251.667 1171.1 269C1207.47 286.333 1243.83 286.333 1280.2 269C1316.57 251.667 1352.93 251.667 1389.3 269C1425.67 286.333 1462.03 286.333 1498.4 269C1534.77 251.667 1571.13 251.667 1607.5 269C1643.87 286.333 1680.23 286.333 1716.6 269C1752.97 251.667 1789.33 251.667 1825.7 269C1862.07 286.333 1898.43 286.333 1934.8 269C1971.17 251.667 2007.53 251.667 2043.9 269C2080.27 286.333 2116.63 286.333 2153 269" stroke="#F5F9FF" stroke-width="2"/>
<path d="M-29 284C7.36666 266.667 43.7333 266.667 80.1 284C116.467 301.333 152.833 301.333 189.2 284C225.567 266.667 261.933 266.667 298.3 284C334.667 301.333 371.033 301.333 407.4 284C443.767 266.667 480.133 266.667 516.5 284C552.867 301.333 589.233 301.333 625.6 284C661.967 266.667 698.333 266.667 734.7 284C771.067 301.333 807.433 301.333 843.8 284C880.167 266.667 916.533 266.667 952.9 284C989.267 301.333 1025.63 301.333 1062 284C1098.37 266.667 1134.73 266.667 1171.1 284C1207.47 301.333 1243.83 301.333 1280.2 284C1316.57 266.667 1352.93 266.667 1389.3 284C1425.67 301.333 1462.03 301.333 1498.4 284C1534.77 266.667 1571.13 266.667 1607.5 284C1643.87 301.333 1680.23 301.333 1716.6 284C1752.97 266.667 1789.33 266.667 1825.7 284C1862.07 301.333 1898.43 301.333 1934.8 284C1971.17 266.667 2007.53 266.667 2043.9 284C2080.27 301.333 2116.63 301.333 2153 284" stroke="#F5F9FF" stroke-width="2"/>
<path d="M-29 299C7.36666 281.667 43.7333 281.667 80.1 299C116.467 316.333 152.833 316.333 189.2 299C225.567 281.667 261.933 281.667 298.3 299C334.667 316.333 371.033 316.333 407.4 299C443.767 281.667 480.133 281.667 516.5 299C552.867 316.333 589.233 316.333 625.6 299C661.967 281.667 698.333 281.667 734.7 299C771.067 316.333 807.433 316.333 843.8 299C880.167 281.667 916.533 281.667 952.9 299C989.267 316.333 1025.63 316.333 1062 299C1098.37 281.667 1134.73 281.667 1171.1 299C1207.47 316.333 1243.83 316.333 1280.2 299C1316.57 281.667 1352.93 281.667 1389.3 299C1425.67 316.333 1462.03 316.333 1498.4 299C1534.77 281.667 1571.13 281.667 1607.5 299C1643.87 316.333 1680.23 316.333 1716.6 299C1752.97 281.667 1789.33 281.667 1825.7 299C1862.07 316.333 1898.43 316.333 1934.8 299C1971.17 281.667 2007.53 281.667 2043.9 299C2080.27 316.333 2116.63 316.333 2153 299" stroke="#F5F9FF" stroke-width="2"/>
<path d="M-29 314C7.36666 296.667 43.7333 296.667 80.1 314C116.467 331.333 152.833 331.333 189.2 314C225.567 296.667 261.933 296.667 298.3 314C334.667 331.333 371.033 331.333 407.4 314C443.767 296.667 480.133 296.667 516.5 314C552.867 331.333 589.233 331.333 625.6 314C661.967 296.667 698.333 296.667 734.7 314C771.067 331.333 807.433 331.333 843.8 314C880.167 296.667 916.533 296.667 952.9 314C989.267 331.333 1025.63 331.333 1062 314C1098.37 296.667 1134.73 296.667 1171.1 314C1207.47 331.333 1243.83 331.333 1280.2 314C1316.57 296.667 1352.93 296.667 1389.3 314C1425.67 331.333 1462.03 331.333 1498.4 314C1534.77 296.667 1571.13 296.667 1607.5 314C1643.87 331.333 1680.23 331.333 1716.6 314C1752.97 296.667 1789.33 296.667 1825.7 314C1862.07 331.333 1898.43 331.333 1934.8 314C1971.17 296.667 2007.53 296.667 2043.9 314C2080.27 331.333 2116.63 331.333 2153 314" stroke="#F5F9FF" stroke-width="2"/>
<path d="M-29 329C7.36666 311.667 43.7333 311.667 80.1 329C116.467 346.333 152.833 346.333 189.2 329C225.567 311.667 261.933 311.667 298.3 329C334.667 346.333 371.033 346.333 407.4 329C443.767 311.667 480.133 311.667 516.5 329C552.867 346.333 589.233 346.333 625.6 329C661.967 311.667 698.333 311.667 734.7 329C771.067 346.333 807.433 346.333 843.8 329C880.167 311.667 916.533 311.667 952.9 329C989.267 346.333 1025.63 346.333 1062 329C1098.37 311.667 1134.73 311.667 1171.1 329C1207.47 346.333 1243.83 346.333 1280.2 329C1316.57 311.667 1352.93 311.667 1389.3 329C1425.67 346.333 1462.03 346.333 1498.4 329C1534.77 311.667 1571.13 311.667 1607.5 329C1643.87 346.333 1680.23 346.333 1716.6 329C1752.97 311.667 1789.33 311.667 1825.7 329C1862.07 346.333 1898.43 346.333 1934.8 329C1971.17 311.667 2007.53 311.667 2043.9 329C2080.27 346.333 2116.63 346.333 2153 329" stroke="#F5F9FF" stroke-width="2"/>
</svg>
