<svg width="280" height="164" viewBox="0 0 280 164" fill="none" xmlns="http://www.w3.org/2000/svg">
<path d="M-412.305 110.479C-376.734 96.6655 -340.335 93.9531 -303.109 102.342C-265.884 110.731 -229.485 108.019 -193.914 94.2048C-158.342 80.391 -121.944 77.6785 -84.7176 86.0675C-47.4917 94.4565 -11.0931 91.7441 24.4783 77.9302C60.0496 64.1164 96.4483 61.404 133.674 69.7929C170.9 78.1819 207.299 75.4695 242.87 61.6557C278.441 47.8418 314.84 45.1294 352.066 53.5184C389.292 61.9073 425.691 59.1949 461.262 45.3811C496.833 31.5672 533.232 28.8548 570.458 37.2438C607.684 45.6328 644.082 42.9203 679.654 29.1065C715.225 15.2927 751.624 12.5802 788.85 20.9692C826.076 29.3582 862.474 26.6458 898.046 12.8319C933.617 -0.981907 970.016 -3.69434 1007.24 4.69464C1044.47 13.0836 1080.87 10.3712 1116.44 -3.44264C1152.01 -17.2565 1188.41 -19.9689 1225.63 -11.5799C1262.86 -3.19095 1299.26 -5.90338 1334.83 -19.7172C1370.4 -33.5311 1406.8 -36.2435 1444.03 -27.8545C1481.25 -19.4655 1517.65 -22.178 1553.22 -35.9918C1588.79 -49.8056 1625.19 -52.5181 1662.42 -44.1291C1699.64 -35.7401 1736.04 -38.4525 1771.61 -52.2664" stroke="#F2F7FF" stroke-opacity="0.1"/>
<path d="M-411.59 120.086C-376.018 106.272 -339.62 103.56 -302.394 111.949C-265.168 120.338 -228.769 117.626 -193.198 103.812C-157.626 89.9979 -121.228 87.2855 -84.0018 95.6744C-46.7759 104.063 -10.3772 101.351 25.1941 87.5372C60.7655 73.7233 97.1641 71.0109 134.39 79.3999C171.616 87.7889 208.015 85.0764 243.586 71.2626C279.157 57.4487 315.556 54.7363 352.782 63.1253C390.008 71.5143 426.406 68.8019 461.978 54.988C497.549 41.1742 533.948 38.4617 571.174 46.8507C608.4 55.2397 644.798 52.5273 680.37 38.7134C715.941 24.8996 752.34 22.1872 789.565 30.5762C826.791 38.9651 863.19 36.2527 898.761 22.4389C934.333 8.62503 970.731 5.9126 1007.96 14.3016C1045.18 22.6906 1081.58 19.9781 1117.15 6.16429C1152.72 -7.64955 1189.12 -10.362 1226.35 -1.973C1263.57 6.41598 1299.97 3.70355 1335.54 -10.1103C1371.12 -23.9241 1407.51 -26.6366 1444.74 -18.2476C1481.97 -9.85859 1518.37 -12.571 1553.94 -26.3849C1589.51 -40.1987 1625.91 -42.9111 1663.13 -34.5221C1700.36 -26.1332 1736.76 -28.8456 1772.33 -42.6594" stroke="#F2F7FF" stroke-opacity="0.1"/>
<path d="M-410.874 129.693C-375.302 115.879 -338.904 113.166 -301.678 121.555C-264.452 129.944 -228.053 127.232 -192.482 113.418C-156.911 99.6043 -120.512 96.8919 -83.286 105.281C-46.0601 113.67 -9.66147 110.957 25.9099 97.1436C61.4812 83.3298 97.8799 80.6173 135.106 89.0063C172.332 97.3953 208.73 94.6829 244.302 80.869C279.873 67.0552 316.272 64.3428 353.498 72.7318C390.723 81.1207 427.122 78.4083 462.693 64.5945C498.265 50.7806 534.663 48.0682 571.889 56.4572C609.115 64.8462 645.514 62.1337 681.085 48.3199C716.657 34.5061 753.055 31.7936 790.281 40.1826C827.507 48.5716 863.906 45.8592 899.477 32.0453C935.048 18.2315 971.447 15.5191 1008.67 23.908C1045.9 32.297 1082.3 29.5846 1117.87 15.7707C1153.44 1.95691 1189.84 -0.755518 1227.06 7.63346C1264.29 16.0224 1300.69 13.31 1336.26 -0.503824C1371.83 -14.3177 1408.23 -17.0301 1445.46 -8.64111C1482.68 -0.25213 1519.08 -2.96456 1554.65 -16.7784C1590.22 -30.5922 1626.62 -33.3047 1663.85 -24.9157C1701.07 -16.5267 1737.47 -19.2391 1773.04 -33.053" stroke="#F2F7FF" stroke-opacity="0.1"/>
<path d="M-410.158 139.3C-374.587 125.486 -338.188 122.773 -300.962 131.162C-263.736 139.551 -227.337 136.839 -191.766 123.025C-156.195 109.211 -119.796 106.499 -82.5702 114.888C-45.3442 123.277 -8.94561 120.564 26.6257 106.751C62.1971 92.9367 98.5957 90.2243 135.822 98.6133C173.048 107.002 209.446 104.29 245.018 90.476C280.589 76.6621 316.988 73.9497 354.213 82.3387C391.439 90.7277 427.838 88.0152 463.409 74.2014C498.981 60.3876 535.379 57.6751 572.605 66.0641C609.831 74.4531 646.23 71.7407 681.801 57.9268C717.373 44.113 753.771 41.4006 790.997 49.7895C828.223 58.1785 864.622 55.4661 900.193 41.6522C935.764 27.8384 972.163 25.126 1009.39 33.515C1046.61 41.9039 1083.01 39.1915 1118.58 25.3777C1154.16 11.5638 1190.55 8.8514 1227.78 17.2404C1265.01 25.6294 1301.41 22.9169 1336.98 9.1031C1372.55 -4.71074 1408.95 -7.42317 1446.17 0.965808C1483.4 9.35479 1519.8 6.64236 1555.37 -7.17148C1590.94 -20.9853 1627.34 -23.6977 1664.56 -15.3088C1701.79 -6.91979 1738.19 -9.63221 1773.76 -23.4461" stroke="#F2F7FF" stroke-opacity="0.1"/>
<path d="M-409.442 148.907C-373.871 135.093 -337.472 132.38 -300.246 140.769C-263.02 149.158 -226.622 146.446 -191.05 132.632C-155.479 118.818 -119.08 116.106 -81.8543 124.495C-44.6284 132.884 -8.22979 130.171 27.3416 116.357C62.9129 102.544 99.3116 99.8312 136.537 108.22C173.763 116.609 210.162 113.897 245.733 100.083C281.305 86.2691 317.703 83.5566 354.929 91.9456C392.155 100.335 428.554 97.6222 464.125 83.8083C499.697 69.9945 536.095 67.2821 573.321 75.671C610.547 84.06 646.946 81.3476 682.517 67.5338C718.088 53.7199 754.487 51.0075 791.713 59.3965C828.939 67.7854 865.337 65.073 900.909 51.2592C936.48 37.4453 972.879 34.7329 1010.1 43.1219C1047.33 51.5109 1083.73 48.7984 1119.3 34.9846C1154.87 21.1708 1191.27 18.4583 1228.5 26.8473C1265.72 35.2363 1302.12 32.5239 1337.69 18.71C1373.26 4.89619 1409.66 2.18376 1446.89 10.5727C1484.11 18.9617 1520.51 16.2493 1556.08 2.43545C1591.66 -11.3784 1628.05 -14.0908 1665.28 -5.70183C1702.51 2.68715 1738.9 -0.0252812 1774.48 -13.8391" stroke="#F2F7FF" stroke-opacity="0.1"/>
<path d="M-408.726 158.513C-373.155 144.699 -336.756 141.987 -299.53 150.376C-262.304 158.765 -225.906 156.052 -190.334 142.238C-154.763 128.425 -118.364 125.712 -81.1385 134.101C-43.9126 142.49 -7.51397 139.778 28.0574 125.964C63.6287 112.15 100.027 109.438 137.253 117.827C174.479 126.216 210.878 123.503 246.449 109.689C282.021 95.8755 318.419 93.1631 355.645 101.552C392.871 109.941 429.27 107.229 464.841 93.4148C500.412 79.6009 536.811 76.8885 574.037 85.2775C611.263 93.6665 647.661 90.954 683.233 77.1402C718.804 63.3264 755.203 60.6139 792.429 69.0029C829.655 77.3919 866.053 74.6795 901.625 60.8656C937.196 47.0518 973.595 44.3394 1010.82 52.7283C1048.05 61.1173 1084.45 58.4049 1120.02 44.591C1155.59 30.7772 1191.99 28.0648 1229.21 36.4538C1266.44 44.8427 1302.84 42.1303 1338.41 28.3165C1373.98 14.5026 1410.38 11.7902 1447.6 20.1792C1484.83 28.5682 1521.23 25.8557 1556.8 12.0419C1592.37 -1.77194 1628.77 -4.48437 1666 3.90461C1703.22 12.2936 1739.62 9.58116 1775.19 -4.23267" stroke="#F2F7FF" stroke-opacity="0.1"/>
<path d="M-408.01 168.12C-372.439 154.306 -336.04 151.594 -298.814 159.983C-261.589 168.372 -225.19 165.659 -189.619 151.845C-154.047 138.032 -117.649 135.319 -80.4227 143.708C-43.1968 152.097 -6.79814 149.385 28.7732 135.571C64.3446 121.757 100.743 119.045 137.969 127.434C175.195 135.823 211.594 133.11 247.165 119.296C282.736 105.482 319.135 102.77 356.361 111.159C393.587 119.548 429.985 116.836 465.557 103.022C501.128 89.2079 537.527 86.4954 574.753 94.8844C611.979 103.273 648.377 100.561 683.949 86.7471C719.52 72.9333 755.919 70.2209 793.145 78.6098C830.37 86.9988 866.769 84.2864 902.34 70.4726C937.912 56.6587 974.31 53.9463 1011.54 62.3353C1048.76 70.7242 1085.16 68.0118 1120.73 54.198C1156.3 40.3841 1192.7 37.6717 1229.93 46.0607C1267.15 54.4497 1303.55 51.7372 1339.12 37.9234C1374.7 24.1096 1411.09 21.3971 1448.32 29.7861C1485.55 38.1751 1521.94 35.4627 1557.52 21.6488C1593.09 7.835 1629.49 5.12257 1666.71 13.5115C1703.94 21.9005 1740.34 19.1881 1775.91 5.37426" stroke="#F2F7FF" stroke-opacity="0.1"/>
<path d="M-407.294 177.727C-371.722 163.913 -335.324 161.201 -298.098 169.59C-260.872 177.979 -224.473 175.266 -188.902 161.452C-153.33 147.639 -116.932 144.926 -79.7059 153.315C-42.48 161.704 -6.08135 158.992 29.49 145.178C65.0614 131.364 101.46 128.652 138.686 137.04C175.912 145.429 212.31 142.717 247.882 128.903C283.453 115.089 319.852 112.377 357.078 120.766C394.304 129.155 430.702 126.442 466.274 112.629C501.845 98.8148 538.244 96.1024 575.47 104.491C612.695 112.88 649.094 110.168 684.665 96.3541C720.237 82.5402 756.635 79.8278 793.861 88.2168C831.087 96.6058 867.486 93.8933 903.057 80.0795C938.629 66.2657 975.027 63.5532 1012.25 71.9422C1049.48 80.3312 1085.88 77.6188 1121.45 63.8049C1157.02 49.9911 1193.42 47.2786 1230.64 55.6676C1267.87 64.0566 1304.27 61.3442 1339.84 47.5303C1375.41 33.7165 1411.81 31.0041 1449.04 39.3931C1486.26 47.782 1522.66 45.0696 1558.23 31.2558C1593.8 17.4419 1630.2 14.7295 1667.43 23.1185C1704.65 31.5075 1741.05 28.795 1776.62 14.9812" stroke="#F2F7FF" stroke-opacity="0.1" stroke-width="2"/>
<path d="M-406.578 187.333C-371.006 173.52 -334.608 170.807 -297.382 179.196C-260.156 187.585 -223.757 184.873 -188.186 171.059C-152.615 157.245 -116.216 154.533 -78.9901 162.922C-41.7642 171.31 -5.36553 168.598 30.2058 154.784C65.7772 140.97 102.176 138.258 139.402 146.647C176.628 155.036 213.026 152.323 248.598 138.51C284.169 124.696 320.568 121.983 357.794 130.372C395.019 138.761 431.418 136.049 466.989 122.235C502.561 108.421 538.959 105.709 576.185 114.098C613.411 122.487 649.81 119.774 685.381 105.961C720.953 92.1467 757.351 89.4342 794.577 97.8232C831.803 106.212 868.202 103.5 903.773 89.6859C939.344 75.8721 975.743 73.1597 1012.97 81.5486C1050.19 89.9376 1086.59 87.2252 1122.16 73.4114C1157.74 59.5975 1194.13 56.8851 1231.36 65.2741C1268.59 73.6631 1304.99 70.9506 1340.56 57.1368C1376.13 43.3229 1412.53 40.6105 1449.75 48.9995C1486.98 57.3885 1523.38 54.6761 1558.95 40.8622C1594.52 27.0484 1630.92 24.3359 1668.14 32.7249C1705.37 41.1139 1741.77 38.4015 1777.34 24.5876" stroke="#F2F7FF" stroke-opacity="0.1" stroke-width="2"/>
<path d="M-405.862 196.94C-370.291 183.126 -333.892 180.414 -296.666 188.803C-259.44 197.192 -223.042 194.48 -187.47 180.666C-151.899 166.852 -115.5 164.139 -78.2743 172.528C-41.0483 180.917 -4.64971 178.205 30.9216 164.391C66.493 150.577 102.892 147.865 140.118 156.254C177.343 164.643 213.742 161.93 249.313 148.117C284.885 134.303 321.283 131.59 358.509 139.979C395.735 148.368 432.134 145.656 467.705 131.842C503.277 118.028 539.675 115.316 576.901 123.705C614.127 132.094 650.526 129.381 686.097 115.567C721.668 101.754 758.067 99.0412 795.293 107.43C832.519 115.819 868.918 113.107 904.489 99.2929C940.06 85.479 976.459 82.7666 1013.68 91.1556C1050.91 99.5446 1087.31 96.8321 1122.88 83.0183C1158.45 69.2045 1194.85 66.492 1232.08 74.881C1269.3 83.27 1305.7 80.5576 1341.27 66.7437C1376.84 52.9299 1413.24 50.2175 1450.47 58.6064C1487.69 66.9954 1524.09 64.283 1559.66 50.4691C1595.24 36.6553 1631.63 33.9429 1668.86 42.3319C1706.09 50.7208 1742.48 48.0084 1778.06 34.1946" stroke="#F2F7FF" stroke-opacity="0.1" stroke-width="2"/>
<path d="M-405.146 206.547C-369.575 192.733 -333.176 190.021 -295.95 198.41C-258.724 206.799 -222.326 204.087 -186.754 190.273C-151.183 176.459 -114.784 173.746 -77.5585 182.135C-40.3326 190.524 -3.93393 187.812 31.6374 173.998C67.2088 160.184 103.607 157.472 140.833 165.861C178.059 174.25 214.458 171.537 250.029 157.724C285.601 143.91 321.999 141.197 359.225 149.586C396.451 157.975 432.85 155.263 468.421 141.449C503.992 127.635 540.391 124.923 577.617 133.312C614.843 141.701 651.241 138.988 686.813 125.174C722.384 111.361 758.783 108.648 796.009 117.037C833.235 125.426 869.633 122.714 905.205 108.9C940.776 95.086 977.175 92.3735 1014.4 100.763C1051.63 109.152 1088.02 106.439 1123.6 92.6252C1159.17 78.8114 1195.57 76.099 1232.79 84.488C1270.02 92.8769 1306.42 90.1645 1341.99 76.3507C1377.56 62.5368 1413.96 59.8244 1451.18 68.2134C1488.41 76.6024 1524.81 73.8899 1560.38 60.0761C1595.95 46.2623 1632.35 43.5498 1669.58 51.9388C1706.8 60.3278 1743.2 57.6154 1778.77 43.8015" stroke="#F2F7FF" stroke-opacity="0.1" stroke-width="2"/>
<path d="M-404.43 216.154C-368.859 202.34 -332.46 199.627 -295.234 208.016C-258.009 216.405 -221.61 213.693 -186.039 199.879C-150.467 186.065 -114.069 183.353 -76.8426 191.742C-39.6167 200.131 -3.21807 197.418 32.3533 183.605C67.9246 169.791 104.323 167.078 141.549 175.467C178.775 183.856 215.174 181.144 250.745 167.33C286.316 153.516 322.715 150.804 359.941 159.193C397.167 167.582 433.566 164.869 469.137 151.055C504.708 137.242 541.107 134.529 578.333 142.918C615.559 151.307 651.957 148.595 687.529 134.781C723.1 120.967 759.499 118.255 796.725 126.644C833.951 135.033 870.349 132.32 905.921 118.506C941.492 104.692 977.891 101.98 1015.12 110.369C1052.34 118.758 1088.74 116.046 1124.31 102.232C1159.88 88.4178 1196.28 85.7054 1233.51 94.0944C1270.73 102.483 1307.13 99.7709 1342.7 85.9571C1378.28 72.1433 1414.67 69.4308 1451.9 77.8198C1489.13 86.2088 1525.52 83.4964 1561.1 69.6825C1596.67 55.8687 1633.07 53.1563 1670.29 61.5452C1707.52 69.9342 1743.92 67.2218 1779.49 53.408" stroke="#F2F7FF" stroke-opacity="0.1" stroke-width="2"/>
<path d="M-403.715 225.761C-368.143 211.947 -331.745 209.234 -294.519 217.623C-257.293 226.012 -220.894 223.3 -185.323 209.486C-149.751 195.672 -113.353 192.96 -76.1268 201.349C-38.9009 209.738 -2.50225 207.025 33.0691 193.211C68.6405 179.398 105.039 176.685 142.265 185.074C179.491 193.463 215.89 190.751 251.461 176.937C287.032 163.123 323.431 160.411 360.657 168.8C397.883 177.189 434.281 174.476 469.853 160.662C505.424 146.848 541.823 144.136 579.049 152.525C616.275 160.914 652.673 158.202 688.245 144.388C723.816 130.574 760.215 127.861 797.44 136.25C834.666 144.639 871.065 141.927 906.636 128.113C942.208 114.299 978.606 111.587 1015.83 119.976C1053.06 128.365 1089.46 125.652 1125.03 111.839C1160.6 98.0248 1197 95.3123 1234.22 103.701C1271.45 112.09 1307.85 109.378 1343.42 95.564C1378.99 81.7502 1415.39 79.0378 1452.62 87.4267C1489.84 95.8157 1526.24 93.1033 1561.81 79.2895C1597.38 65.4756 1633.78 62.7632 1671.01 71.1522C1708.23 79.5412 1744.63 76.8287 1780.2 63.0149" stroke="#F2F7FF" stroke-opacity="0.1" stroke-width="2"/>
<path d="M-402.999 235.368C-367.427 221.554 -331.029 218.841 -293.803 227.23C-256.577 235.619 -220.178 232.907 -184.607 219.093C-149.036 205.279 -112.637 202.567 -75.411 210.956C-38.1851 219.345 -1.78647 216.632 33.7849 202.818C69.3562 189.005 105.755 186.292 142.981 194.681C180.207 203.07 216.605 200.358 252.177 186.544C287.748 172.73 324.147 170.018 361.373 178.407C398.598 186.796 434.997 184.083 470.568 170.269C506.14 156.455 542.538 153.743 579.764 162.132C616.99 170.521 653.389 167.809 688.96 153.995C724.532 140.181 760.93 137.468 798.156 145.857C835.382 154.246 871.781 151.534 907.352 137.72C942.923 123.906 979.322 121.194 1016.55 129.583C1053.77 137.972 1090.17 135.259 1125.74 121.446C1161.32 107.632 1197.71 104.919 1234.94 113.308C1272.17 121.697 1308.56 118.985 1344.14 105.171C1379.71 91.3571 1416.11 88.6447 1453.33 97.0337C1490.56 105.423 1526.96 102.71 1562.53 88.8964C1598.1 75.0826 1634.5 72.3701 1671.72 80.7591C1708.95 89.1481 1745.35 86.4357 1780.92 72.6218" stroke="#F2F7FF" stroke-opacity="0.1" stroke-width="2"/>
<path d="M-402.283 244.974C-366.712 231.161 -330.313 228.448 -293.087 236.837C-255.861 245.226 -219.462 242.514 -183.891 228.7C-148.32 214.886 -111.921 212.174 -74.6952 220.563C-37.4692 228.952 -1.07061 226.239 34.5007 212.425C70.0721 198.612 106.471 195.899 143.697 204.288C180.923 212.677 217.321 209.965 252.893 196.151C288.464 182.337 324.863 179.625 362.088 188.013C399.314 196.402 435.713 193.69 471.284 179.876C506.856 166.062 543.254 163.35 580.48 171.739C617.706 180.128 654.105 177.415 689.676 163.602C725.248 149.788 761.646 147.075 798.872 155.464C836.098 163.853 872.497 161.141 908.068 147.327C943.639 133.513 980.038 130.801 1017.26 139.19C1054.49 147.579 1090.89 144.866 1126.46 131.052C1162.03 117.239 1198.43 114.526 1235.66 122.915C1272.88 131.304 1309.28 128.592 1344.85 114.778C1380.42 100.964 1416.82 98.2516 1454.05 106.641C1491.27 115.03 1527.67 112.317 1563.24 98.5033C1598.81 84.6895 1635.21 81.9771 1672.44 90.366C1709.67 98.755 1746.06 96.0426 1781.64 82.2288" stroke="#F2F7FF" stroke-opacity="0.1" stroke-width="2"/>
<path d="M-401.567 254.581C-365.996 240.767 -329.597 238.055 -292.371 246.444C-255.145 254.833 -218.747 252.12 -183.175 238.306C-147.604 224.493 -111.205 221.78 -73.9793 230.169C-36.7534 238.558 -0.354786 235.846 35.2166 222.032C70.7879 208.218 107.187 205.506 144.412 213.895C181.638 222.283 218.037 219.571 253.608 205.757C289.18 191.943 325.578 189.231 362.804 197.62C400.03 206.009 436.429 203.296 472 189.483C507.572 175.669 543.97 172.956 581.196 181.345C618.422 189.734 654.821 187.022 690.392 173.208C725.963 159.394 762.362 156.682 799.588 165.071C836.814 173.46 873.212 170.747 908.784 156.933C944.355 143.12 980.754 140.407 1017.98 148.796C1055.21 157.185 1091.6 154.473 1127.18 140.659C1162.75 126.845 1199.15 124.133 1236.37 132.522C1273.6 140.911 1310 138.198 1345.57 124.384C1381.14 110.571 1417.54 107.858 1454.76 116.247C1491.99 124.636 1528.39 121.924 1563.96 108.11C1599.53 94.2959 1635.93 91.5835 1673.16 99.9725C1710.38 108.361 1746.78 105.649 1782.35 91.8352" stroke="#F2F7FF" stroke-opacity="0.1" stroke-width="2"/>
<path d="M-400.851 264.188C-365.28 250.374 -328.881 247.662 -291.655 256.051C-254.429 264.44 -218.031 261.727 -182.459 247.913C-146.888 234.099 -110.489 231.387 -73.2635 239.776C-36.0376 248.165 0.360991 245.453 35.9323 231.639C71.5037 217.825 107.902 215.112 145.128 223.501C182.354 231.89 218.753 229.178 254.324 215.364C289.895 201.55 326.294 198.838 363.52 207.227C400.746 215.616 437.145 212.903 472.716 199.09C508.287 185.276 544.686 182.563 581.912 190.952C619.138 199.341 655.536 196.629 691.108 182.815C726.679 169.001 763.078 166.289 800.304 174.678C837.529 183.067 873.928 180.354 909.499 166.54C945.071 152.727 981.469 150.014 1018.7 158.403C1055.92 166.792 1092.32 164.08 1127.89 150.266C1163.46 136.452 1199.86 133.74 1237.09 142.129C1274.31 150.518 1310.71 147.805 1346.28 133.991C1381.85 120.177 1418.25 117.465 1455.48 125.854C1492.7 134.243 1529.1 131.531 1564.67 117.717C1600.25 103.903 1636.64 101.19 1673.87 109.579C1711.1 117.968 1747.5 115.256 1783.07 101.442" stroke="#F2F7FF" stroke-opacity="0.1" stroke-width="2"/>
<path d="M-400.135 273.795C-364.564 259.981 -328.165 257.269 -290.939 265.658C-253.714 274.046 -217.315 271.334 -181.744 257.52C-146.172 243.706 -109.774 240.994 -72.5477 249.383C-35.3218 257.772 1.07686 255.059 36.6482 241.246C72.2196 227.432 108.618 224.719 145.844 233.108C183.07 241.497 219.469 238.785 255.04 224.971C290.611 211.157 327.01 208.445 364.236 216.834C401.462 225.223 437.86 222.51 473.432 208.697C509.003 194.883 545.402 192.17 582.628 200.559C619.854 208.948 656.252 206.236 691.824 192.422C727.395 178.608 763.794 175.896 801.02 184.285C838.245 192.674 874.644 189.961 910.215 176.147C945.787 162.334 982.185 159.621 1019.41 168.01C1056.64 176.399 1093.04 173.687 1128.61 159.873C1164.18 146.059 1200.58 143.347 1237.8 151.735C1275.03 160.124 1311.43 157.412 1347 143.598C1382.57 129.784 1418.97 127.072 1456.19 135.461C1493.42 143.85 1529.82 141.137 1565.39 127.324C1600.96 113.51 1637.36 110.797 1674.59 119.186C1711.81 127.575 1748.21 124.863 1783.78 111.049" stroke="#F2F7FF" stroke-opacity="0.1" stroke-width="2"/>
<path d="M-399.42 283.401C-363.848 269.587 -327.45 266.875 -290.224 275.264C-252.998 283.653 -216.599 280.941 -181.028 267.127C-145.456 253.313 -109.058 250.6 -71.8319 258.989C-34.606 267.378 1.79263 264.666 37.364 250.852C72.9353 237.038 109.334 234.326 146.56 242.715C183.786 251.104 220.184 248.391 255.756 234.578C291.327 220.764 327.726 218.051 364.952 226.44C402.178 234.829 438.576 232.117 474.148 218.303C509.719 204.489 546.118 201.777 583.343 210.166C620.569 218.555 656.968 215.842 692.539 202.028C728.111 188.215 764.509 185.502 801.735 193.891C838.961 202.28 875.36 199.568 910.931 185.754C946.502 171.94 982.901 169.228 1020.13 177.617C1057.35 186.006 1093.75 183.293 1129.32 169.479C1164.89 155.665 1201.29 152.953 1238.52 161.342C1275.74 169.731 1312.14 167.019 1347.71 153.205C1383.29 139.391 1419.68 136.678 1456.91 145.067C1494.14 153.456 1530.54 150.744 1566.11 136.93C1601.68 123.116 1638.08 120.404 1675.3 128.793C1712.53 137.182 1748.93 134.469 1784.5 120.656" stroke="#F2F7FF" stroke-opacity="0.1" stroke-width="2"/>
<path d="M-398.703 293.008C-363.131 279.194 -326.733 276.482 -289.507 284.871C-252.281 293.26 -215.882 290.547 -180.311 276.734C-144.74 262.92 -108.341 260.207 -71.1151 268.596C-33.8892 276.985 2.50943 274.273 38.0808 260.459C73.6521 246.645 110.051 243.933 147.277 252.322C184.503 260.711 220.901 257.998 256.473 244.184C292.044 230.371 328.443 227.658 365.668 236.047C402.894 244.436 439.293 241.724 474.864 227.91C510.436 214.096 546.834 211.384 584.06 219.773C621.286 228.162 657.685 225.449 693.256 211.635C728.827 197.821 765.226 195.109 802.452 203.498C839.678 211.887 876.077 209.175 911.648 195.361C947.219 181.547 983.618 178.834 1020.84 187.223C1058.07 195.612 1094.47 192.9 1130.04 179.086C1165.61 165.272 1202.01 162.56 1239.24 170.949C1276.46 179.338 1312.86 176.625 1348.43 162.812C1384 148.998 1420.4 146.285 1457.63 154.674C1494.85 163.063 1531.25 160.351 1566.82 146.537C1602.39 132.723 1638.79 130.011 1676.02 138.4C1713.25 146.789 1749.64 144.076 1785.22 130.262" stroke="#F2F7FF" stroke-opacity="0.1" stroke-width="2"/>
<path d="M-397.987 302.615C-362.416 288.801 -326.017 286.089 -288.791 294.478C-251.565 302.867 -215.167 300.154 -179.595 286.341C-144.024 272.527 -107.625 269.814 -70.3993 278.203C-33.1733 286.592 3.22529 283.88 38.7966 270.066C74.368 256.252 110.767 253.54 147.993 261.929C185.218 270.318 221.617 267.605 257.188 253.791C292.76 239.978 329.158 237.265 366.384 245.654C403.61 254.043 440.009 251.331 475.58 237.517C511.152 223.703 547.55 220.991 584.776 229.38C622.002 237.769 658.401 235.056 693.972 221.242C729.543 207.428 765.942 204.716 803.168 213.105C840.394 221.494 876.793 218.782 912.364 204.968C947.935 191.154 984.334 188.441 1021.56 196.83C1058.79 205.219 1095.18 202.507 1130.76 188.693C1166.33 174.879 1202.73 172.167 1239.95 180.556C1277.18 188.945 1313.58 186.232 1349.15 172.419C1384.72 158.605 1421.12 155.892 1458.34 164.281C1495.57 172.67 1531.97 169.958 1567.54 156.144C1603.11 142.33 1639.51 139.618 1676.74 148.007C1713.96 156.396 1750.36 153.683 1785.93 139.869" stroke="#F2F7FF" stroke-opacity="0.1" stroke-width="2"/>
<path d="M-397.271 312.222C-361.7 298.408 -325.301 295.695 -288.075 304.084C-250.849 312.473 -214.451 309.761 -178.879 295.947C-143.308 282.133 -106.909 279.421 -69.6835 287.81C-32.4576 296.199 3.94107 293.486 39.5124 279.672C75.0838 265.859 111.482 263.146 148.708 271.535C185.934 279.924 222.333 277.212 257.904 263.398C293.476 249.584 329.874 246.872 367.1 255.261C404.326 263.65 440.725 260.937 476.296 247.123C511.867 233.309 548.266 230.597 585.492 238.986C622.718 247.375 659.116 244.663 694.688 230.849C730.259 217.035 766.658 214.322 803.884 222.711C841.11 231.1 877.508 228.388 913.08 214.574C948.651 200.76 985.05 198.048 1022.28 206.437C1059.5 214.826 1095.9 212.113 1131.47 198.3C1167.04 184.486 1203.44 181.773 1240.67 190.162C1277.89 198.551 1314.29 195.839 1349.86 182.025C1385.43 168.211 1421.83 165.499 1459.06 173.888C1496.28 182.277 1532.68 179.564 1568.25 165.75C1603.83 151.937 1640.22 149.224 1677.45 157.613C1714.68 166.002 1751.08 163.29 1786.65 149.476" stroke="#F2F7FF" stroke-opacity="0.1" stroke-width="2"/>
</svg>
